<?xml version="1.0" encoding="UTF-8" standalone="no"?>
<svg
   viewBox="0 0 512 512"
   style="height: 512px; width: 512px;"
   version="1.1"
   id="svg2"
   sodipodi:docname="cancel_White.svg"
   inkscape:version="1.4 (86a8ad7, 2024-10-11)"
   xmlns:inkscape="http://www.inkscape.org/namespaces/inkscape"
   xmlns:sodipodi="http://sodipodi.sourceforge.net/DTD/sodipodi-0.dtd"
   xmlns="http://www.w3.org/2000/svg"
   xmlns:svg="http://www.w3.org/2000/svg">
  <defs
     id="defs2" />
  <sodipodi:namedview
     id="namedview2"
     pagecolor="#ffffff"
     bordercolor="#000000"
     borderopacity="0.25"
     inkscape:showpageshadow="2"
     inkscape:pageopacity="0.0"
     inkscape:pagecheckerboard="0"
     inkscape:deskcolor="#d1d1d1"
     inkscape:zoom="1.5761719"
     inkscape:cx="256"
     inkscape:cy="256"
     inkscape:window-width="1920"
     inkscape:window-height="1009"
     inkscape:window-x="-8"
     inkscape:window-y="-8"
     inkscape:window-maximized="1"
     inkscape:current-layer="svg2" />
  <g
     class=""
     transform="translate(0,0)"
     style="fill:#ffffff"
     id="g2">
    <path
       d="M256 16C123.45 16 16 123.45 16 256s107.45 240 240 240 240-107.45 240-240S388.55 16 256 16zm0 60c99.41 0 180 80.59 180 180s-80.59 180-180 180S76 355.41 76 256 156.59 76 256 76zm-80.625 60c-.97-.005-2.006.112-3.063.313v-.032c-18.297 3.436-45.264 34.743-33.375 46.626l73.157 73.125-73.156 73.126c-14.63 14.625 29.275 58.534 43.906 43.906L256 299.906l73.156 73.156c14.63 14.628 58.537-29.28 43.906-43.906l-73.156-73.125 73.156-73.124c14.63-14.625-29.275-58.5-43.906-43.875L256 212.157l-73.156-73.125c-2.06-2.046-4.56-3.015-7.47-3.03z"
       fill="#fff"
       fill-opacity="1"
       id="path2"
       style="fill:#ffffff" />
  </g>
</svg>
