<?xml version="1.0" encoding="UTF-8" standalone="no"?>
<svg
   viewBox="0 0 512 512"
   style="height: 512px; width: 512px;"
   version="1.1"
   id="svg2"
   sodipodi:docname="confirmed.svg"
   inkscape:version="1.4 (86a8ad7, 2024-10-11)"
   xmlns:inkscape="http://www.inkscape.org/namespaces/inkscape"
   xmlns:sodipodi="http://sodipodi.sourceforge.net/DTD/sodipodi-0.dtd"
   xmlns="http://www.w3.org/2000/svg"
   xmlns:svg="http://www.w3.org/2000/svg">
  <defs
     id="defs2" />
  <sodipodi:namedview
     id="namedview2"
     pagecolor="#ffffff"
     bordercolor="#000000"
     borderopacity="0.25"
     inkscape:showpageshadow="2"
     inkscape:pageopacity="0.0"
     inkscape:pagecheckerboard="0"
     inkscape:deskcolor="#d1d1d1"
     inkscape:zoom="1.5761719"
     inkscape:cx="256"
     inkscape:cy="256"
     inkscape:window-width="1920"
     inkscape:window-height="1009"
     inkscape:window-x="-8"
     inkscape:window-y="-8"
     inkscape:window-maximized="1"
     inkscape:current-layer="svg2" />
  <g
     class=""
     transform="translate(0,0)"
     style="fill:#000000"
     id="g2">
    <path
       d="M256 16C123.5 16 16 123.5 16 256c0 132.6 107.5 240 240 240 132.6 0 240-107.4 240-240S388.6 16 256 16zm0 60c99.4 0 180 80.6 180 180s-80.6 180-180 180S76 355.4 76 256 156.6 76 256 76zm91.3 64.2c-6.5 0-12.5 2.4-16.8 8.2-52 70.1-69 96.5-106 169.8-8.4-11.1-65.6-72.4-93.9-94.1-14.2-10.9-41.3 27.2-31.6 37.1C142.6 306.1 220.1 406 232.7 405c21.4-1.7 75.1-136.8 148.8-233.7 8-10.4-15-31.3-34.2-31.1z"
       fill="#fff"
       fill-opacity="1"
       id="path2"
       style="fill:#000000" />
  </g>
</svg>
