<?xml version="1.0" encoding="UTF-8" standalone="no"?>
<svg
   viewBox="0 0 512 512"
   style="height: 512px; width: 512px;"
   version="1.1"
   id="svg2"
   sodipodi:docname="load.svg"
   inkscape:version="1.4 (86a8ad7, 2024-10-11)"
   xmlns:inkscape="http://www.inkscape.org/namespaces/inkscape"
   xmlns:sodipodi="http://sodipodi.sourceforge.net/DTD/sodipodi-0.dtd"
   xmlns="http://www.w3.org/2000/svg"
   xmlns:svg="http://www.w3.org/2000/svg">
  <defs
     id="defs2" />
  <sodipodi:namedview
     id="namedview2"
     pagecolor="#ffffff"
     bordercolor="#000000"
     borderopacity="0.25"
     inkscape:showpageshadow="2"
     inkscape:pageopacity="0.0"
     inkscape:pagecheckerboard="0"
     inkscape:deskcolor="#d1d1d1"
     inkscape:zoom="1.5761719"
     inkscape:cx="256"
     inkscape:cy="256"
     inkscape:window-width="1920"
     inkscape:window-height="1009"
     inkscape:window-x="-8"
     inkscape:window-y="-8"
     inkscape:window-maximized="1"
     inkscape:current-layer="svg2" />
  <g
     class=""
     transform="translate(0,0)"
     style="fill:#000000"
     id="g2">
    <path
       d="M64 48c-8.726 0-16 7.274-16 16v384c0 8.726 7.274 16 16 16h236.25l-16-16H64V64h63.375v97.53c0 3.924 3.443 7.095 7.72 7.095h169.81c4.277 0 7.72-3.17 7.72-7.094V64h69.22c.428.318.8.548 1.467 1.094 2.05 1.675 4.962 4.264 8.375 7.406 6.827 6.283 15.65 14.837 24.313 23.5 8.663 8.663 17.217 17.486 23.5 24.313 3.142 3.413 5.73 6.324 7.406 8.374.546.668.776 1.04 1.094 1.47V366h16V128c0-2.68-.657-3.402-1.03-4.156a15.312 15.312 0 0 0-1.095-1.844c-.74-1.1-1.575-2.19-2.594-3.438-2.036-2.492-4.768-5.55-8.03-9.093-6.524-7.09-15.155-16-23.938-24.782-8.782-8.783-17.692-17.414-24.78-23.938-3.545-3.262-6.6-5.994-9.094-8.03-1.247-1.02-2.337-1.855-3.438-2.595-.55-.37-1.09-.72-1.844-1.094-.754-.373-1.477-1.03-4.156-1.03H64zm87.72 16h48.56c4.277 0 7.72 4.425 7.72 9.938v70.124c0 5.513-3.443 9.938-7.72 9.938h-48.56c-4.277 0-7.72-4.425-7.72-9.938V73.938c0-5.512 3.443-9.937 7.72-9.937zM114 212c-4.432 0-8 3.568-8 8v184c0 4.432 3.568 8 8 8h134.25l-30.625-30.625L202.28 366H279V238h127v-18c0-4.432-3.568-8-8-8H114zm183 44v128h-51.25L352 490.25 458.25 384H407V256H297zm167 147.75-16 16V448h-28.25l-16 16H448c8.726 0 16-7.274 16-16v-44.25z"
       fill="#fff"
       fill-opacity="1"
       id="path2"
       style="fill:#000000" />
  </g>
</svg>
