<?xml version="1.0" encoding="UTF-8" standalone="no"?>
<svg
   viewBox="0 0 512 512"
   style="height: 512px; width: 512px;"
   version="1.1"
   id="svg2"
   sodipodi:docname="pencil_White.svg"
   inkscape:version="1.4 (86a8ad7, 2024-10-11)"
   xmlns:inkscape="http://www.inkscape.org/namespaces/inkscape"
   xmlns:sodipodi="http://sodipodi.sourceforge.net/DTD/sodipodi-0.dtd"
   xmlns="http://www.w3.org/2000/svg"
   xmlns:svg="http://www.w3.org/2000/svg">
  <defs
     id="defs2" />
  <sodipodi:namedview
     id="namedview2"
     pagecolor="#ffffff"
     bordercolor="#000000"
     borderopacity="0.25"
     inkscape:showpageshadow="2"
     inkscape:pageopacity="0.0"
     inkscape:pagecheckerboard="0"
     inkscape:deskcolor="#d1d1d1"
     inkscape:zoom="1.5761719"
     inkscape:cx="256"
     inkscape:cy="256"
     inkscape:window-width="1920"
     inkscape:window-height="1009"
     inkscape:window-x="-8"
     inkscape:window-y="-8"
     inkscape:window-maximized="1"
     inkscape:current-layer="svg2" />
  <path
     d="m 429.548,30.836 c -0.307,-0.003 -0.6,0.005 -0.875,0.024 -2.212,0.147 -3.34,0.653 -4.576,1.89 l -27.58,27.58 55.156,55.154 27.578,-27.58 c 1.238,-1.236 1.744,-2.363 1.89,-4.575 0.15,-2.21 -0.37,-5.433 -1.805,-9.163 -2.87,-7.46 -9.277,-16.667 -17.055,-24.445 -7.778,-7.778 -16.985,-14.185 -24.445,-17.055 -3.264,-1.255 -6.138,-1.81 -8.287,-1.83 z m -45.758,42.22 -9.9,9.9 9.9,9.9 12.727,12.727 9.9,9.9 12.727,12.728 9.9,9.9 9.9,-9.9 -55.155,-55.155 z m -22.627,22.626 -288.498,288.504 9.898,9.897 288.5,-288.5 -9.9,-9.9 z m 22.627,22.63 -288.5,288.496 9.9,9.902 288.5,-288.5 -9.9,-9.9 z m 22.63,22.626 -288.502,288.5 9.897,9.9 288.503,-288.5 -9.9,-9.9 z m -343.197,259.26 -12.12,30.306 30.393,30.394 30.305,-12.12 -6.61,-6.612 L 92.46,429.44 82.56,419.54 69.83,406.812 63.22,400.2 Z M 43.828,448.686 30.835,481.164 63.313,468.172 43.827,448.687 Z"
     fill="#ffffff"
     fill-opacity="1"
     id="path2"
     style="fill:#ffffff" />
</svg>
